# Generated by tools/make-block-mesh.py -- edit that, not this.
# Simple computer by Robert Schlyter, CC-BY 3.0, from https://poly.pizza/m/doMMnviJrGi
v -0.64653 -0.76589 -0.79623
v -0.64855 0.18357 -0.33338
v -0.64870 0.18418 -0.79499
v -0.64638 -0.76649 -0.33463
v 0.64258 -0.76355 -0.33506
v 0.64242 -0.76294 -0.79666
v 0.64025 0.18712 -0.79542
v 0.64041 0.18651 -0.33382
v 0.04732 0.03684 -0.65338
v 0.04698 0.21328 -0.47561
v 0.04692 0.21351 -0.65315
v 0.04738 0.03661 -0.47584
v 0.54554 0.03774 -0.47601
v 0.54548 0.03798 -0.65355
v 0.54508 0.21465 -0.65332
v 0.54514 0.21442 -0.47578
v -0.37458 -0.51851 -0.33440
v -0.37580 0.04193 -0.15612
v -0.37586 0.04216 -0.33366
v -0.37453 -0.51874 -0.15685
v 0.37224 -0.51704 -0.15710
v 0.37218 -0.51681 -0.33464
v 0.37090 0.04387 -0.33391
v 0.37096 0.04363 -0.15637
v -0.51869 -0.74561 -0.15710
v -0.52033 0.11086 0.80000
v -0.52065 0.11211 -0.15598
v -0.49648 -0.59839 0.45990
v -0.49745 -0.36250 0.72371
v 0.54343 -0.59601 0.45955
v 0.52122 -0.74323 -0.15745
v 0.51927 0.11448 -0.15633
v 0.51959 0.11323 0.79965
v 0.54247 -0.36013 0.72336
v -0.40994 0.10610 -0.00212
v -0.40979 0.14001 0.67454
v -0.41001 0.14089 -0.00208
v -0.40971 0.10522 0.67449
v 0.40759 0.10709 0.67422
v 0.40736 0.10797 -0.00240
v 0.40729 0.14276 -0.00235
v 0.40751 0.14187 0.67426
v -0.40264 0.35222 -0.74734
v -0.40476 0.42499 -0.67816
v -0.40347 0.42321 -0.74914
v -0.40393 0.35400 -0.67636
v -0.33293 0.35486 -0.67509
v -0.33164 0.35308 -0.74607
v -0.33247 0.42407 -0.74787
v -0.33376 0.42585 -0.67689
v -0.60217 0.35145 -0.73869
v -0.60231 0.42237 -0.66758
v -0.60233 0.42247 -0.73860
v -0.60215 0.35136 -0.66768
v -0.53113 0.35152 -0.66770
v -0.53115 0.35161 -0.73872
v -0.53132 0.42263 -0.73862
v -0.53129 0.42254 -0.66761
v -0.56169 0.18395 -0.47219
v -0.56174 0.21540 -0.40113
v -0.56176 0.21549 -0.47215
v -0.56166 0.18386 -0.40117
v -0.49065 0.18402 -0.40120
v -0.49067 0.18411 -0.47221
v -0.49074 0.21565 -0.47217
v -0.49072 0.21556 -0.40116
v -0.63456 0.32615 -0.79957
v -0.63554 0.76346 -0.72493
v -0.63556 0.76356 -0.79900
v -0.63670 0.32178 -0.69032
v 0.64657 0.32471 -0.69075
v 0.64870 0.32908 -0.80000
v 0.64770 0.76649 -0.79943
v 0.64773 0.76639 -0.72536
v -0.19333 0.35152 -0.74686
v -0.19545 0.42429 -0.67768
v -0.19416 0.42251 -0.74866
v -0.19462 0.35331 -0.67588
v -0.12362 0.35417 -0.67461
v -0.12233 0.35238 -0.74559
v -0.12316 0.42337 -0.74739
v -0.12445 0.42515 -0.67641
v 0.13509 0.35324 -0.74613
v 0.12933 0.42693 -0.67814
v 0.13324 0.42417 -0.74899
v 0.13118 0.35600 -0.67528
v 0.20207 0.35800 -0.67145
v 0.20597 0.35524 -0.74231
v 0.20412 0.42618 -0.74517
v 0.20022 0.42894 -0.67431
v -0.29832 0.35245 -0.74548
v -0.30043 0.42522 -0.67630
v -0.29914 0.42343 -0.74728
v -0.29961 0.35423 -0.67450
v -0.22861 0.35509 -0.67323
v -0.22732 0.35331 -0.74421
v -0.22814 0.42429 -0.74601
v -0.22943 0.42608 -0.67503
v 0.03012 0.35252 -0.74857
v 0.02437 0.42621 -0.68058
v 0.02827 0.42345 -0.75143
v 0.02622 0.35527 -0.67771
v 0.09710 0.35728 -0.67389
v 0.10101 0.35452 -0.74474
v 0.09916 0.42545 -0.74761
v 0.09525 0.42821 -0.67675
v -0.07405 0.35061 -0.75420
v -0.07980 0.42430 -0.68620
v -0.07590 0.42154 -0.75706
v -0.07795 0.35336 -0.68334
v -0.00707 0.35537 -0.67952
v -0.00316 0.35261 -0.75037
v -0.00501 0.42354 -0.75323
v -0.00892 0.42630 -0.68238
v -0.60058 0.46896 -0.75295
v -0.60128 0.54158 -0.68358
v -0.60038 0.53996 -0.75457
v -0.60149 0.47058 -0.68196
v -0.53048 0.47040 -0.68105
v -0.52957 0.46878 -0.75204
v -0.52937 0.53978 -0.75366
v -0.53027 0.54139 -0.68267
v -0.49626 0.46766 -0.75163
v -0.49696 0.54027 -0.68225
v -0.49605 0.53865 -0.75324
v -0.49717 0.46928 -0.68063
v -0.42616 0.46909 -0.67972
v -0.42525 0.46747 -0.75071
v -0.42504 0.53847 -0.75233
v -0.42595 0.54009 -0.68134
v -0.39131 0.46520 -0.75354
v -0.39201 0.53781 -0.68416
v -0.39110 0.53620 -0.75516
v -0.39222 0.46682 -0.68255
v -0.32121 0.46663 -0.68163
v -0.32030 0.46501 -0.75263
v -0.32009 0.53601 -0.75424
v -0.32100 0.53763 -0.68325
v -0.16788 0.46292 -0.75638
v -0.17221 0.53651 -0.68817
v -0.16870 0.53388 -0.75905
v -0.17138 0.46555 -0.68550
v -0.10046 0.46651 -0.68203
v -0.09695 0.46388 -0.75291
v -0.09778 0.53484 -0.75558
v -0.10128 0.53747 -0.68470
v -0.06290 0.46210 -0.75447
v -0.06723 0.53569 -0.68627
v -0.06372 0.53306 -0.75715
v -0.06641 0.46473 -0.68359
v 0.00452 0.46569 -0.68012
v 0.00802 0.46305 -0.75100
v 0.00720 0.53402 -0.75368
v 0.00370 0.53665 -0.68280
v -0.27209 0.46255 -0.76148
v -0.27642 0.53614 -0.69328
v -0.27291 0.53351 -0.76416
v -0.27559 0.46518 -0.69060
v -0.20467 0.46614 -0.68713
v -0.20116 0.46351 -0.75801
v -0.20199 0.53447 -0.76069
v -0.20549 0.53710 -0.68981
v 0.12844 0.47686 -0.75917
v 0.12759 0.54855 -0.68884
v 0.12914 0.54787 -0.75984
v 0.12689 0.47754 -0.68818
v 0.19789 0.47685 -0.68662
v 0.19943 0.47617 -0.75762
v 0.20014 0.54718 -0.75828
v 0.19859 0.54786 -0.68729
v 0.02589 0.46869 -0.76135
v 0.02801 0.53992 -0.69059
v 0.02681 0.53970 -0.76159
v 0.02709 0.46891 -0.69035
v 0.09809 0.46799 -0.69155
v 0.09689 0.46776 -0.76255
v 0.09781 0.53877 -0.76279
v 0.09901 0.53900 -0.69179
v -0.59982 0.56233 -0.76522
v -0.60189 0.63419 -0.69509
v -0.60024 0.63334 -0.76609
v -0.60146 0.56318 -0.69423
v -0.53047 0.56363 -0.69259
v -0.52882 0.56278 -0.76358
v -0.52925 0.63379 -0.76445
v -0.53089 0.63464 -0.69346
v -0.49551 0.56195 -0.76284
v -0.49758 0.63381 -0.69271
v -0.49593 0.63296 -0.76370
v -0.49715 0.56280 -0.69185
v -0.42616 0.56325 -0.69021
v -0.42451 0.56240 -0.76120
v -0.42494 0.63341 -0.76206
v -0.42658 0.63426 -0.69107
v -0.39052 0.56046 -0.76370
v -0.39260 0.63232 -0.69357
v -0.39095 0.63147 -0.76456
v -0.39217 0.56131 -0.69270
v -0.32117 0.56176 -0.69106
v -0.31953 0.56091 -0.76206
v -0.31996 0.63192 -0.76292
v -0.32160 0.63277 -0.69193
v -0.27121 0.55898 -0.77044
v -0.27691 0.63179 -0.70151
v -0.27266 0.62995 -0.77237
v -0.27546 0.56082 -0.69958
v -0.20459 0.56238 -0.69537
v -0.20034 0.56054 -0.76623
v -0.20178 0.63151 -0.76816
v -0.20603 0.63335 -0.69730
v -0.17777 0.56434 -0.76413
v -0.17977 0.63685 -0.69467
v -0.17716 0.63533 -0.76562
v -0.18038 0.56585 -0.69318
v -0.10941 0.56529 -0.69056
v -0.10680 0.56378 -0.76151
v -0.10619 0.63478 -0.76300
v -0.10880 0.63629 -0.69205
v -0.07352 0.56248 -0.76030
v -0.07551 0.63499 -0.69083
v -0.07291 0.63348 -0.76179
v -0.07612 0.56400 -0.68934
v -0.00516 0.56344 -0.68672
v -0.00255 0.56193 -0.75768
v -0.00194 0.63293 -0.75917
v -0.00455 0.63444 -0.68821
v 0.02103 0.56397 -0.76374
v 0.02253 0.63601 -0.69378
v 0.02214 0.63497 -0.76479
v 0.02143 0.56501 -0.69273
v 0.09244 0.56390 -0.69311
v 0.09204 0.56286 -0.76411
v 0.09315 0.63386 -0.76517
v 0.09354 0.63490 -0.69416
v 0.12873 0.56731 -0.77106
v 0.12754 0.63829 -0.70001
v 0.12895 0.63833 -0.77101
v 0.12733 0.56727 -0.70006
v 0.19833 0.56706 -0.69866
v 0.19973 0.56710 -0.76966
v 0.19995 0.63812 -0.76961
v 0.19855 0.63808 -0.69861
v -0.41550 0.66619 -0.77489
v -0.41518 0.73604 -0.70273
v -0.41588 0.73720 -0.77373
v -0.41480 0.66504 -0.70389
v 0.15440 0.66815 -0.70949
v 0.15369 0.66931 -0.78050
v 0.15331 0.74032 -0.77934
v 0.15402 0.73916 -0.70833
v 0.45237 0.36125 -0.74300
v 0.45206 0.43502 -0.67485
v 0.45140 0.43220 -0.74580
v 0.45302 0.36406 -0.67204
v 0.52403 0.36500 -0.67274
v 0.52337 0.36218 -0.74369
v 0.52241 0.43314 -0.74650
v 0.52306 0.43595 -0.67554
v 0.34803 0.36090 -0.74198
v 0.34772 0.43467 -0.67383
v 0.34707 0.43186 -0.74479
v 0.34869 0.36372 -0.67103
v 0.41970 0.36466 -0.67172
v 0.41904 0.36184 -0.74268
v 0.41807 0.43279 -0.74549
v 0.41873 0.43561 -0.67453
v 0.55727 0.36039 -0.74725
v 0.55696 0.43416 -0.67910
v 0.55631 0.43135 -0.75005
v 0.55793 0.36321 -0.67629
v 0.62894 0.36415 -0.67698
v 0.62828 0.36133 -0.74794
v 0.62731 0.43228 -0.75075
v 0.62797 0.43510 -0.67979
v 0.35200 0.46336 -0.75583
v 0.34790 0.53868 -0.68952
v 0.35043 0.53421 -0.76035
v 0.34947 0.46783 -0.68500
v 0.42042 0.46955 -0.68257
v 0.42295 0.46509 -0.75340
v 0.42138 0.53594 -0.75793
v 0.41885 0.54041 -0.68710
v 0.45627 0.46486 -0.75223
v 0.45216 0.54019 -0.68593
v 0.45470 0.53572 -0.75676
v 0.45373 0.46933 -0.68140
v 0.52469 0.47106 -0.67897
v 0.52722 0.46659 -0.74980
v 0.52565 0.53744 -0.75433
v 0.52312 0.54191 -0.68350
v 0.56126 0.46510 -0.75181
v 0.55716 0.54042 -0.68550
v 0.55969 0.53596 -0.75633
v 0.55873 0.46957 -0.68098
v 0.62968 0.47130 -0.67855
v 0.63221 0.46683 -0.74938
v 0.63064 0.53768 -0.75390
v 0.62811 0.54215 -0.68307
v 0.56022 0.57684 -0.77178
v 0.55597 0.64697 -0.70003
v 0.55812 0.64782 -0.77101
v 0.55807 0.57599 -0.70081
v 0.62903 0.57807 -0.69863
v 0.63118 0.57891 -0.76961
v 0.62907 0.64989 -0.76883
v 0.62693 0.64905 -0.69786
v 0.35096 0.57382 -0.77481
v 0.34671 0.64396 -0.70305
v 0.34886 0.64480 -0.77403
v 0.34881 0.57298 -0.70383
v 0.41976 0.57506 -0.70166
v 0.42191 0.57590 -0.77264
v 0.41981 0.64688 -0.77186
v 0.41766 0.64604 -0.70088
v 0.45523 0.57584 -0.77166
v 0.45098 0.64598 -0.69991
v 0.45313 0.64682 -0.77089
v 0.45308 0.57500 -0.70069
v 0.52404 0.57707 -0.69851
v 0.52618 0.57791 -0.76949
v 0.52408 0.64890 -0.76871
v 0.52193 0.64805 -0.69774
vt 0.16667 0.50000
vt 0.16667 0.83333
vt 0.50000 0.50000
vt 0.50000 0.83333
vt 0.83333 0.83333
vn -1.0000 -0.0023 0.0003
vn 1.0000 0.0023 -0.0003
vn -0.0003 0.0013 -1.0000
vn 0.0003 -0.0013 1.0000
vn -0.0023 1.0000 0.0013
vn 0.0023 -1.0000 -0.0013
vn -0.9996 -0.0229 0.0186
vn 0.9996 0.0229 -0.0186
vn 0.0007 -0.1591 0.9873
vn 0.0023 -0.9727 0.2320
vn 0.0019 -0.7455 0.6665
vn -0.9998 -0.0121 -0.0179
vn 0.9998 0.0121 0.0179
vn 0.0182 -0.0251 -0.9995
vn -0.0182 0.0251 0.9995
vn -0.0116 0.9996 -0.0253
vn 0.0116 -0.9996 0.0253
vn -0.9999 -0.0003 -0.0115
vn 0.9999 0.0003 0.0115
vn 0.0002 0.0781 0.9969
vn 0.0023 -0.9992 -0.0399
vn -0.9981 -0.0282 -0.0539
vn 0.9981 0.0282 0.0539
vn 0.0550 -0.0388 -0.9977
vn -0.0550 0.0388 0.9977
vn -0.0261 0.9988 -0.0403
vn 0.0261 -0.9988 0.0403
vn -0.9999 0.0026 -0.0128
vn 0.9999 -0.0026 0.0128
vn 0.0128 -0.0228 -0.9997
vn -0.0128 0.0228 0.9997
vn 0.0029 0.9997 -0.0228
vn -0.0029 -0.9997 0.0228
vn -0.9987 -0.0134 -0.0489
vn 0.9987 0.0134 0.0489
vn 0.0493 -0.0371 -0.9981
vn -0.0493 0.0371 0.9981
vn -0.0116 0.9992 -0.0377
vn 0.0116 -0.9992 0.0377
vn -0.9997 0.0097 -0.0219
vn 0.9997 -0.0097 0.0219
vn 0.0218 -0.0096 -0.9997
vn -0.0218 0.0096 0.9997
vn 0.0099 0.9999 -0.0093
vn -0.0099 -0.9999 0.0093
vn -0.9998 0.0130 0.0169
vn 0.9998 -0.0130 -0.0169
vn -0.0169 -0.0032 -0.9999
vn 0.0169 0.0032 0.9999
vn 0.0130 0.9999 -0.0034
vn -0.0130 -0.9999 0.0034
vn -0.9997 -0.0063 -0.0231
vn 0.9997 0.0063 0.0231
vn 0.0232 -0.0120 -0.9997
vn -0.0232 0.0120 0.9997
vn -0.0060 0.9999 -0.0121
vn 0.0060 -0.9999 0.0121
vn -0.9980 -0.0219 -0.0593
vn 0.9980 0.0219 0.0593
vn 0.0598 -0.0259 -0.9979
vn -0.0598 0.0259 0.9979
vn -0.0204 0.9994 -0.0272
vn 0.0204 -0.9994 0.0272
vn -0.9993 0.0078 -0.0369
vn 0.9993 -0.0078 0.0369
vn 0.0367 -0.0213 -0.9991
vn -0.0367 0.0213 0.9991
vn 0.0086 0.9997 -0.0210
vn -0.0086 -0.9997 0.0210
vn -0.9999 0.0157 0.0053
vn 0.9999 -0.0157 -0.0053
vn -0.0056 -0.0147 -0.9999
vn 0.0056 0.0147 0.9999
vn 0.0156 0.9998 -0.0148
vn -0.0156 -0.9998 0.0148
vn -0.9998 0.0030 -0.0197
vn 0.9998 -0.0030 0.0197
vn 0.0197 0.0006 -0.9998
vn -0.0197 -0.0006 0.9998
vn 0.0030 1.0000 0.0006
vn -0.0030 -1.0000 -0.0006
vn -0.9999 -0.0055 0.0098
vn 0.9999 0.0055 -0.0098
vn -0.0099 0.0163 -0.9998
vn 0.0099 -0.0163 0.9998
vn -0.0053 0.9999 0.0164
vn 0.0053 -0.9999 -0.0164
vn -0.9999 -0.0132 0.0098
vn 0.9999 0.0132 -0.0098
vn -0.0093 -0.0397 -0.9992
vn 0.0093 0.0397 0.9992
vn -0.0136 0.9991 -0.0395
vn 0.0136 -0.9991 0.0395
vn -0.9991 -0.0243 -0.0342
vn 0.9991 0.0243 0.0342
vn 0.0357 -0.0629 -0.9974
vn -0.0357 0.0629 0.9974
vn -0.0221 0.9977 -0.0637
vn 0.0221 -0.9977 0.0637
vn -0.9991 -0.0292 -0.0306
vn 0.9991 0.0292 0.0306
vn 0.0302 0.0119 -0.9995
vn -0.0302 -0.0119 0.9995
vn -0.0296 0.9995 0.0110
vn 0.0296 -0.9995 -0.0110
f 1/3/1 2/3/1 3/3/1
f 2/3/1 1/3/1 4/3/1
f 5/3/2 6/3/2 7/3/2
f 7/3/2 8/3/2 5/3/2
f 7/3/3 1/3/3 3/3/3
f 1/3/3 7/3/3 6/3/3
f 5/3/4 8/3/4 2/3/4
f 2/3/4 4/3/4 5/3/4
f 8/3/5 7/3/5 3/3/5
f 3/3/5 2/3/5 8/3/5
f 6/3/6 4/3/6 1/3/6
f 4/3/6 6/3/6 5/3/6
f 9/2/1 10/2/1 11/2/1
f 10/2/1 9/2/1 12/2/1
f 13/2/2 14/2/2 15/2/2
f 15/2/2 16/2/2 13/2/2
f 15/2/3 9/2/3 11/2/3
f 9/2/3 15/2/3 14/2/3
f 13/2/4 16/2/4 10/2/4
f 10/2/4 12/2/4 13/2/4
f 16/2/5 15/2/5 11/2/5
f 11/2/5 10/2/5 16/2/5
f 14/2/6 12/2/6 9/2/6
f 12/2/6 14/2/6 13/2/6
f 17/1/1 18/1/1 19/1/1
f 18/1/1 17/1/1 20/1/1
f 21/1/2 22/1/2 23/1/2
f 23/1/2 24/1/2 21/1/2
f 23/1/3 17/1/3 19/1/3
f 17/1/3 23/1/3 22/1/3
f 21/1/4 24/1/4 18/1/4
f 18/1/4 20/1/4 21/1/4
f 24/1/5 23/1/5 19/1/5
f 19/1/5 18/1/5 24/1/5
f 22/1/6 20/1/6 17/1/6
f 20/1/6 22/1/6 21/1/6
f 25/1/7 26/1/7 27/1/7
f 26/1/7 28/1/7 29/1/7
f 28/1/7 26/1/7 25/1/7
f 30/1/8 31/1/8 32/1/8
f 32/1/8 33/1/8 34/1/8
f 34/1/8 30/1/8 32/1/8
f 32/1/3 25/1/3 27/1/3
f 25/1/3 32/1/3 31/1/3
f 34/1/9 33/1/9 26/1/9
f 26/1/9 29/1/9 34/1/9
f 33/1/5 32/1/5 27/1/5
f 27/1/5 26/1/5 33/1/5
f 31/1/10 28/1/10 25/1/10
f 28/1/10 31/1/10 30/1/10
f 30/1/11 34/1/11 29/1/11
f 29/1/11 28/1/11 30/1/11
f 35/2/1 36/2/1 37/2/1
f 36/2/1 35/2/1 38/2/1
f 39/2/2 40/2/2 41/2/2
f 41/2/2 42/2/2 39/2/2
f 41/2/3 35/2/3 37/2/3
f 35/2/3 41/2/3 40/2/3
f 39/2/4 42/2/4 36/2/4
f 36/2/4 38/2/4 39/2/4
f 42/2/5 41/2/5 37/2/5
f 37/2/5 36/2/5 42/2/5
f 40/2/6 38/2/6 35/2/6
f 38/2/6 40/2/6 39/2/6
f 43/5/12 44/5/12 45/5/12
f 44/5/12 43/5/12 46/5/12
f 47/5/13 48/5/13 49/5/13
f 49/5/13 50/5/13 47/5/13
f 49/5/14 43/5/14 45/5/14
f 43/5/14 49/5/14 48/5/14
f 47/5/15 50/5/15 44/5/15
f 44/5/15 46/5/15 47/5/15
f 50/5/16 49/5/16 45/5/16
f 45/5/16 44/5/16 50/5/16
f 48/5/17 46/5/17 43/5/17
f 46/5/17 48/5/17 47/5/17
f 51/5/1 52/5/1 53/5/1
f 52/5/1 51/5/1 54/5/1
f 55/5/2 56/5/2 57/5/2
f 57/5/2 58/5/2 55/5/2
f 57/5/3 51/5/3 53/5/3
f 51/5/3 57/5/3 56/5/3
f 55/5/4 58/5/4 52/5/4
f 52/5/4 54/5/4 55/5/4
f 58/5/5 57/5/5 53/5/5
f 53/5/5 52/5/5 58/5/5
f 56/5/6 54/5/6 51/5/6
f 54/5/6 56/5/6 55/5/6
f 59/4/1 60/4/1 61/4/1
f 60/4/1 59/4/1 62/4/1
f 63/4/2 64/4/2 65/4/2
f 65/4/2 66/4/2 63/4/2
f 65/4/3 59/4/3 61/4/3
f 59/4/3 65/4/3 64/4/3
f 63/4/4 66/4/4 60/4/4
f 60/4/4 62/4/4 63/4/4
f 66/4/5 65/4/5 61/4/5
f 61/4/5 60/4/5 66/4/5
f 64/4/6 62/4/6 59/4/6
f 62/4/6 64/4/6 63/4/6
f 67/3/18 68/3/18 69/3/18
f 68/3/18 67/3/18 70/3/18
f 71/3/19 72/3/19 73/3/19
f 73/3/19 74/3/19 71/3/19
f 73/3/3 67/3/3 69/3/3
f 67/3/3 73/3/3 72/3/3
f 71/3/20 74/3/20 68/3/20
f 68/3/20 70/3/20 71/3/20
f 74/3/5 73/3/5 69/3/5
f 69/3/5 68/3/5 74/3/5
f 72/3/21 70/3/21 67/3/21
f 70/3/21 72/3/21 71/3/21
f 75/5/12 76/5/12 77/5/12
f 76/5/12 75/5/12 78/5/12
f 79/5/13 80/5/13 81/5/13
f 81/5/13 82/5/13 79/5/13
f 81/5/14 75/5/14 77/5/14
f 75/5/14 81/5/14 80/5/14
f 79/5/15 82/5/15 76/5/15
f 76/5/15 78/5/15 79/5/15
f 82/5/16 81/5/16 77/5/16
f 77/5/16 76/5/16 82/5/16
f 80/5/17 78/5/17 75/5/17
f 78/5/17 80/5/17 79/5/17
f 83/5/22 84/5/22 85/5/22
f 84/5/22 83/5/22 86/5/22
f 87/5/23 88/5/23 89/5/23
f 89/5/23 90/5/23 87/5/23
f 89/5/24 83/5/24 85/5/24
f 83/5/24 89/5/24 88/5/24
f 87/5/25 90/5/25 84/5/25
f 84/5/25 86/5/25 87/5/25
f 90/5/26 89/5/26 85/5/26
f 85/5/26 84/5/26 90/5/26
f 88/5/27 86/5/27 83/5/27
f 86/5/27 88/5/27 87/5/27
f 91/5/12 92/5/12 93/5/12
f 92/5/12 91/5/12 94/5/12
f 95/5/13 96/5/13 97/5/13
f 97/5/13 98/5/13 95/5/13
f 97/5/14 91/5/14 93/5/14
f 91/5/14 97/5/14 96/5/14
f 95/5/15 98/5/15 92/5/15
f 92/5/15 94/5/15 95/5/15
f 98/5/16 97/5/16 93/5/16
f 93/5/16 92/5/16 98/5/16
f 96/5/17 94/5/17 91/5/17
f 94/5/17 96/5/17 95/5/17
f 99/5/22 100/5/22 101/5/22
f 100/5/22 99/5/22 102/5/22
f 103/5/23 104/5/23 105/5/23
f 105/5/23 106/5/23 103/5/23
f 105/5/24 99/5/24 101/5/24
f 99/5/24 105/5/24 104/5/24
f 103/5/25 106/5/25 100/5/25
f 100/5/25 102/5/25 103/5/25
f 106/5/26 105/5/26 101/5/26
f 101/5/26 100/5/26 106/5/26
f 104/5/27 102/5/27 99/5/27
f 102/5/27 104/5/27 103/5/27
f 107/5/22 108/5/22 109/5/22
f 108/5/22 107/5/22 110/5/22
f 111/5/23 112/5/23 113/5/23
f 113/5/23 114/5/23 111/5/23
f 113/5/24 107/5/24 109/5/24
f 107/5/24 113/5/24 112/5/24
f 111/5/25 114/5/25 108/5/25
f 108/5/25 110/5/25 111/5/25
f 114/5/26 113/5/26 109/5/26
f 109/5/26 108/5/26 114/5/26
f 112/5/27 110/5/27 107/5/27
f 110/5/27 112/5/27 111/5/27
f 115/5/28 116/5/28 117/5/28
f 116/5/28 115/5/28 118/5/28
f 119/5/29 120/5/29 121/5/29
f 121/5/29 122/5/29 119/5/29
f 121/5/30 115/5/30 117/5/30
f 115/5/30 121/5/30 120/5/30
f 119/5/31 122/5/31 116/5/31
f 116/5/31 118/5/31 119/5/31
f 122/5/32 121/5/32 117/5/32
f 117/5/32 116/5/32 122/5/32
f 120/5/33 118/5/33 115/5/33
f 118/5/33 120/5/33 119/5/33
f 123/5/28 124/5/28 125/5/28
f 124/5/28 123/5/28 126/5/28
f 127/5/29 128/5/29 129/5/29
f 129/5/29 130/5/29 127/5/29
f 129/5/30 123/5/30 125/5/30
f 123/5/30 129/5/30 128/5/30
f 127/5/31 130/5/31 124/5/31
f 124/5/31 126/5/31 127/5/31
f 130/5/32 129/5/32 125/5/32
f 125/5/32 124/5/32 130/5/32
f 128/5/33 126/5/33 123/5/33
f 126/5/33 128/5/33 127/5/33
f 131/5/28 132/5/28 133/5/28
f 132/5/28 131/5/28 134/5/28
f 135/5/29 136/5/29 137/5/29
f 137/5/29 138/5/29 135/5/29
f 137/5/30 131/5/30 133/5/30
f 131/5/30 137/5/30 136/5/30
f 135/5/31 138/5/31 132/5/31
f 132/5/31 134/5/31 135/5/31
f 138/5/32 137/5/32 133/5/32
f 133/5/32 132/5/32 138/5/32
f 136/5/33 134/5/33 131/5/33
f 134/5/33 136/5/33 135/5/33
f 139/5/34 140/5/34 141/5/34
f 140/5/34 139/5/34 142/5/34
f 143/5/35 144/5/35 145/5/35
f 145/5/35 146/5/35 143/5/35
f 145/5/36 139/5/36 141/5/36
f 139/5/36 145/5/36 144/5/36
f 143/5/37 146/5/37 140/5/37
f 140/5/37 142/5/37 143/5/37
f 146/5/38 145/5/38 141/5/38
f 141/5/38 140/5/38 146/5/38
f 144/5/39 142/5/39 139/5/39
f 142/5/39 144/5/39 143/5/39
f 147/5/34 148/5/34 149/5/34
f 148/5/34 147/5/34 150/5/34
f 151/5/35 152/5/35 153/5/35
f 153/5/35 154/5/35 151/5/35
f 153/5/36 147/5/36 149/5/36
f 147/5/36 153/5/36 152/5/36
f 151/5/37 154/5/37 148/5/37
f 148/5/37 150/5/37 151/5/37
f 154/5/38 153/5/38 149/5/38
f 149/5/38 148/5/38 154/5/38
f 152/5/39 150/5/39 147/5/39
f 150/5/39 152/5/39 151/5/39
f 155/5/34 156/5/34 157/5/34
f 156/5/34 155/5/34 158/5/34
f 159/5/35 160/5/35 161/5/35
f 161/5/35 162/5/35 159/5/35
f 161/5/36 155/5/36 157/5/36
f 155/5/36 161/5/36 160/5/36
f 159/5/37 162/5/37 156/5/37
f 156/5/37 158/5/37 159/5/37
f 162/5/38 161/5/38 157/5/38
f 157/5/38 156/5/38 162/5/38
f 160/5/39 158/5/39 155/5/39
f 158/5/39 160/5/39 159/5/39
f 163/5/40 164/5/40 165/5/40
f 164/5/40 163/5/40 166/5/40
f 167/5/41 168/5/41 169/5/41
f 169/5/41 170/5/41 167/5/41
f 169/5/42 163/5/42 165/5/42
f 163/5/42 169/5/42 168/5/42
f 167/5/43 170/5/43 164/5/43
f 164/5/43 166/5/43 167/5/43
f 170/5/44 169/5/44 165/5/44
f 165/5/44 164/5/44 170/5/44
f 168/5/45 166/5/45 163/5/45
f 166/5/45 168/5/45 167/5/45
f 171/5/46 172/5/46 173/5/46
f 172/5/46 171/5/46 174/5/46
f 175/5/47 176/5/47 177/5/47
f 177/5/47 178/5/47 175/5/47
f 177/5/48 171/5/48 173/5/48
f 171/5/48 177/5/48 176/5/48
f 175/5/49 178/5/49 172/5/49
f 172/5/49 174/5/49 175/5/49
f 178/5/50 177/5/50 173/5/50
f 173/5/50 172/5/50 178/5/50
f 176/5/51 174/5/51 171/5/51
f 174/5/51 176/5/51 175/5/51
f 179/5/52 180/5/52 181/5/52
f 180/5/52 179/5/52 182/5/52
f 183/5/53 184/5/53 185/5/53
f 185/5/53 186/5/53 183/5/53
f 185/5/54 179/5/54 181/5/54
f 179/5/54 185/5/54 184/5/54
f 183/5/55 186/5/55 180/5/55
f 180/5/55 182/5/55 183/5/55
f 186/5/56 185/5/56 181/5/56
f 181/5/56 180/5/56 186/5/56
f 184/5/57 182/5/57 179/5/57
f 182/5/57 184/5/57 183/5/57
f 187/5/52 188/5/52 189/5/52
f 188/5/52 187/5/52 190/5/52
f 191/5/53 192/5/53 193/5/53
f 193/5/53 194/5/53 191/5/53
f 193/5/54 187/5/54 189/5/54
f 187/5/54 193/5/54 192/5/54
f 191/5/55 194/5/55 188/5/55
f 188/5/55 190/5/55 191/5/55
f 194/5/56 193/5/56 189/5/56
f 189/5/56 188/5/56 194/5/56
f 192/5/57 190/5/57 187/5/57
f 190/5/57 192/5/57 191/5/57
f 195/5/52 196/5/52 197/5/52
f 196/5/52 195/5/52 198/5/52
f 199/5/53 200/5/53 201/5/53
f 201/5/53 202/5/53 199/5/53
f 201/5/54 195/5/54 197/5/54
f 195/5/54 201/5/54 200/5/54
f 199/5/55 202/5/55 196/5/55
f 196/5/55 198/5/55 199/5/55
f 202/5/56 201/5/56 197/5/56
f 197/5/56 196/5/56 202/5/56
f 200/5/57 198/5/57 195/5/57
f 198/5/57 200/5/57 199/5/57
f 203/5/58 204/5/58 205/5/58
f 204/5/58 203/5/58 206/5/58
f 207/5/59 208/5/59 209/5/59
f 209/5/59 210/5/59 207/5/59
f 209/5/60 203/5/60 205/5/60
f 203/5/60 209/5/60 208/5/60
f 207/5/61 210/5/61 204/5/61
f 204/5/61 206/5/61 207/5/61
f 210/5/62 209/5/62 205/5/62
f 205/5/62 204/5/62 210/5/62
f 208/5/63 206/5/63 203/5/63
f 206/5/63 208/5/63 207/5/63
f 211/5/64 212/5/64 213/5/64
f 212/5/64 211/5/64 214/5/64
f 215/5/65 216/5/65 217/5/65
f 217/5/65 218/5/65 215/5/65
f 217/5/66 211/5/66 213/5/66
f 211/5/66 217/5/66 216/5/66
f 215/5/67 218/5/67 212/5/67
f 212/5/67 214/5/67 215/5/67
f 218/5/68 217/5/68 213/5/68
f 213/5/68 212/5/68 218/5/68
f 216/5/69 214/5/69 211/5/69
f 214/5/69 216/5/69 215/5/69
f 219/5/64 220/5/64 221/5/64
f 220/5/64 219/5/64 222/5/64
f 223/5/65 224/5/65 225/5/65
f 225/5/65 226/5/65 223/5/65
f 225/5/66 219/5/66 221/5/66
f 219/5/66 225/5/66 224/5/66
f 223/5/67 226/5/67 220/5/67
f 220/5/67 222/5/67 223/5/67
f 226/5/68 225/5/68 221/5/68
f 221/5/68 220/5/68 226/5/68
f 224/5/69 222/5/69 219/5/69
f 222/5/69 224/5/69 223/5/69
f 227/5/70 228/5/70 229/5/70
f 228/5/70 227/5/70 230/5/70
f 231/5/71 232/5/71 233/5/71
f 233/5/71 234/5/71 231/5/71
f 233/5/72 227/5/72 229/5/72
f 227/5/72 233/5/72 232/5/72
f 231/5/73 234/5/73 228/5/73
f 228/5/73 230/5/73 231/5/73
f 234/5/74 233/5/74 229/5/74
f 229/5/74 228/5/74 234/5/74
f 232/5/75 230/5/75 227/5/75
f 230/5/75 232/5/75 231/5/75
f 235/5/76 236/5/76 237/5/76
f 236/5/76 235/5/76 238/5/76
f 239/5/77 240/5/77 241/5/77
f 241/5/77 242/5/77 239/5/77
f 241/5/78 235/5/78 237/5/78
f 235/5/78 241/5/78 240/5/78
f 239/5/79 242/5/79 236/5/79
f 236/5/79 238/5/79 239/5/79
f 242/5/80 241/5/80 237/5/80
f 237/5/80 236/5/80 242/5/80
f 240/5/81 238/5/81 235/5/81
f 238/5/81 240/5/81 239/5/81
f 243/5/82 244/5/82 245/5/82
f 244/5/82 243/5/82 246/5/82
f 247/5/83 248/5/83 249/5/83
f 249/5/83 250/5/83 247/5/83
f 249/5/84 243/5/84 245/5/84
f 243/5/84 249/5/84 248/5/84
f 247/5/85 250/5/85 244/5/85
f 244/5/85 246/5/85 247/5/85
f 250/5/86 249/5/86 245/5/86
f 245/5/86 244/5/86 250/5/86
f 248/5/87 246/5/87 243/5/87
f 246/5/87 248/5/87 247/5/87
f 251/5/88 252/5/88 253/5/88
f 252/5/88 251/5/88 254/5/88
f 255/5/89 256/5/89 257/5/89
f 257/5/89 258/5/89 255/5/89
f 257/5/90 251/5/90 253/5/90
f 251/5/90 257/5/90 256/5/90
f 255/5/91 258/5/91 252/5/91
f 252/5/91 254/5/91 255/5/91
f 258/5/92 257/5/92 253/5/92
f 253/5/92 252/5/92 258/5/92
f 256/5/93 254/5/93 251/5/93
f 254/5/93 256/5/93 255/5/93
f 259/5/88 260/5/88 261/5/88
f 260/5/88 259/5/88 262/5/88
f 263/5/89 264/5/89 265/5/89
f 265/5/89 266/5/89 263/5/89
f 265/5/90 259/5/90 261/5/90
f 259/5/90 265/5/90 264/5/90
f 263/5/91 266/5/91 260/5/91
f 260/5/91 262/5/91 263/5/91
f 266/5/92 265/5/92 261/5/92
f 261/5/92 260/5/92 266/5/92
f 264/5/93 262/5/93 259/5/93
f 262/5/93 264/5/93 263/5/93
f 267/5/88 268/5/88 269/5/88
f 268/5/88 267/5/88 270/5/88
f 271/5/89 272/5/89 273/5/89
f 273/5/89 274/5/89 271/5/89
f 273/5/90 267/5/90 269/5/90
f 267/5/90 273/5/90 272/5/90
f 271/5/91 274/5/91 268/5/91
f 268/5/91 270/5/91 271/5/91
f 274/5/92 273/5/92 269/5/92
f 269/5/92 268/5/92 274/5/92
f 272/5/93 270/5/93 267/5/93
f 270/5/93 272/5/93 271/5/93
f 275/5/94 276/5/94 277/5/94
f 276/5/94 275/5/94 278/5/94
f 279/5/95 280/5/95 281/5/95
f 281/5/95 282/5/95 279/5/95
f 281/5/96 275/5/96 277/5/96
f 275/5/96 281/5/96 280/5/96
f 279/5/97 282/5/97 276/5/97
f 276/5/97 278/5/97 279/5/97
f 282/5/98 281/5/98 277/5/98
f 277/5/98 276/5/98 282/5/98
f 280/5/99 278/5/99 275/5/99
f 278/5/99 280/5/99 279/5/99
f 283/5/94 284/5/94 285/5/94
f 284/5/94 283/5/94 286/5/94
f 287/5/95 288/5/95 289/5/95
f 289/5/95 290/5/95 287/5/95
f 289/5/96 283/5/96 285/5/96
f 283/5/96 289/5/96 288/5/96
f 287/5/97 290/5/97 284/5/97
f 284/5/97 286/5/97 287/5/97
f 290/5/98 289/5/98 285/5/98
f 285/5/98 284/5/98 290/5/98
f 288/5/99 286/5/99 283/5/99
f 286/5/99 288/5/99 287/5/99
f 291/5/94 292/5/94 293/5/94
f 292/5/94 291/5/94 294/5/94
f 295/5/95 296/5/95 297/5/95
f 297/5/95 298/5/95 295/5/95
f 297/5/96 291/5/96 293/5/96
f 291/5/96 297/5/96 296/5/96
f 295/5/97 298/5/97 292/5/97
f 292/5/97 294/5/97 295/5/97
f 298/5/98 297/5/98 293/5/98
f 293/5/98 292/5/98 298/5/98
f 296/5/99 294/5/99 291/5/99
f 294/5/99 296/5/99 295/5/99
f 299/5/100 300/5/100 301/5/100
f 300/5/100 299/5/100 302/5/100
f 303/5/101 304/5/101 305/5/101
f 305/5/101 306/5/101 303/5/101
f 305/5/102 299/5/102 301/5/102
f 299/5/102 305/5/102 304/5/102
f 303/5/103 306/5/103 300/5/103
f 300/5/103 302/5/103 303/5/103
f 306/5/104 305/5/104 301/5/104
f 301/5/104 300/5/104 306/5/104
f 304/5/105 302/5/105 299/5/105
f 302/5/105 304/5/105 303/5/105
f 307/5/100 308/5/100 309/5/100
f 308/5/100 307/5/100 310/5/100
f 311/5/101 312/5/101 313/5/101
f 313/5/101 314/5/101 311/5/101
f 313/5/102 307/5/102 309/5/102
f 307/5/102 313/5/102 312/5/102
f 311/5/103 314/5/103 308/5/103
f 308/5/103 310/5/103 311/5/103
f 314/5/104 313/5/104 309/5/104
f 309/5/104 308/5/104 314/5/104
f 312/5/105 310/5/105 307/5/105
f 310/5/105 312/5/105 311/5/105
f 315/5/100 316/5/100 317/5/100
f 316/5/100 315/5/100 318/5/100
f 319/5/101 320/5/101 321/5/101
f 321/5/101 322/5/101 319/5/101
f 321/5/102 315/5/102 317/5/102
f 315/5/102 321/5/102 320/5/102
f 319/5/103 322/5/103 316/5/103
f 316/5/103 318/5/103 319/5/103
f 322/5/104 321/5/104 317/5/104
f 317/5/104 316/5/104 322/5/104
f 320/5/105 318/5/105 315/5/105
f 318/5/105 320/5/105 319/5/105
