# Generated by tools/make-block-mesh.py -- edit that, not this.
# Timer by Poly by Google, CC-BY 3.0, from https://poly.pizza/m/0J1_OKm87pR
v -0.53967 -0.06962 0.62244
v -0.53967 -0.06962 0.45997
v -0.51440 -0.18184 0.44257
v -0.51440 -0.18184 0.59717
v 0.15178 -0.18184 0.73236
v 0.15178 -0.18184 0.50813
v 0.47855 -0.18184 0.44257
v 0.47855 -0.18184 0.59717
v 0.47855 0.16361 0.59717
v 0.50383 0.05139 0.45997
v 0.47855 0.16361 0.44257
v 0.50383 0.05139 0.62244
v -0.37490 0.16361 0.50592
v -0.18763 0.16361 0.73236
v -0.13994 0.16361 0.50592
v -0.51440 0.16361 0.59717
v 0.47855 0.16361 -0.39578
v 0.15178 0.05139 -0.73300
v 0.15178 0.16361 -0.70773
v 0.50383 0.05139 -0.42105
v -0.53967 0.05139 0.62244
v -0.18763 0.05139 0.75763
v -0.18763 -0.18184 0.73236
v -0.18763 -0.06962 0.75763
v 0.50383 -0.06962 -0.42105
v 0.15178 -0.18184 -0.70773
v 0.15178 -0.06962 -0.73300
v 0.47855 -0.18184 -0.39578
v 0.50383 -0.06962 0.62244
v 0.50383 -0.06962 0.45997
v -0.51440 0.16361 0.44257
v -0.53967 0.05139 0.45997
v -0.18763 0.05139 -0.73300
v -0.53967 -0.06962 -0.42105
v -0.53967 0.05139 -0.42105
v -0.18763 -0.06962 -0.73300
v 0.05158 0.02426 -0.73300
v 0.05158 -0.04249 -0.73300
v -0.51440 -0.18184 -0.39578
v -0.18763 -0.18184 -0.70773
v 0.15178 -0.06962 0.75763
v 0.15178 0.05139 0.75763
v 0.15178 0.16361 0.73236
v -0.18763 0.16361 -0.70773
v -0.51440 0.16361 -0.39578
v -0.09056 0.16361 -0.32258
v -0.20057 0.16361 -0.32258
v 0.10410 0.16361 0.50592
v -0.18763 -0.18184 0.50813
v 0.33905 0.16361 0.03307
v 0.10410 0.16361 0.03307
v 0.09951 0.15166 0.04407
v 0.32562 0.15166 0.04407
v -0.13994 0.16361 0.03307
v -0.37490 0.16361 0.03307
v -0.36147 0.15166 0.04407
v -0.13535 0.15166 0.04407
v 0.09951 0.15166 0.49913
v 0.33905 0.16361 0.50592
v 0.32562 0.15166 0.49913
v 0.33905 0.16361 0.43229
v -0.51440 0.16361 0.11158
v -0.37490 0.16361 0.27468
v 0.16473 0.16361 -0.32258
v 0.05472 0.16361 -0.32258
v -0.07015 0.16361 -0.10280
v 0.03431 0.16361 -0.10280
v -0.36147 0.15166 0.27659
v -0.13535 0.15166 0.49913
v -0.36147 0.15166 0.49913
v 0.32562 0.15166 0.42828
v -0.25579 -0.04407 0.73146
v -0.47151 -0.04407 0.64861
v -0.47151 0.02584 0.64861
v -0.25579 0.02584 0.73146
v 0.43567 -0.04407 0.64861
v 0.21994 -0.04407 0.73146
v 0.21994 0.02584 0.73146
v 0.43567 0.02584 0.64861
v 0.08576 -0.04407 0.75763
v -0.12160 -0.04407 0.75763
v -0.12160 0.02584 0.75763
v 0.08576 0.02584 0.75763
v 0.32562 0.15166 0.27659
v 0.33905 0.16361 0.27468
v -0.36147 0.15166 0.42828
v -0.37490 0.16361 0.43229
v 0.47855 0.16361 0.11158
v -0.18763 -0.18184 0.02811
v 0.15178 -0.18184 0.02811
v -0.51440 -0.18184 0.11158
v -0.53967 0.05139 0.11214
v -0.53967 -0.06962 0.11214
v 0.50383 0.05139 0.11214
v 0.50383 -0.06962 0.11214
v 0.50383 0.03130 0.16989
v 0.50383 0.03130 0.40222
v 0.47855 -0.18184 0.11158
v 0.50383 -0.04953 0.40222
v 0.50383 -0.04953 0.16989
v 0.16473 0.16361 -0.10280
v -0.20057 0.16361 -0.10280
v -0.08743 -0.04249 -0.73300
v -0.08743 0.02426 -0.73300
v -0.07449 0.02426 -0.80000
v -0.07449 -0.04249 -0.80000
v 0.03864 0.02426 -0.80000
v 0.03864 -0.04249 -0.80000
v -0.05132 0.02426 -0.78628
v -0.05896 0.02426 -0.74672
v 0.02311 0.02426 -0.74672
v 0.01547 0.02426 -0.78628
v -0.05896 -0.04249 -0.74672
v -0.05132 -0.04249 -0.78628
v 0.02311 -0.04249 -0.74672
v 0.01547 -0.04249 -0.78628
v -0.13535 0.15166 0.42828
v 0.09951 0.15166 0.42828
v -0.13535 0.15166 0.27659
v 0.09951 0.15166 0.27659
v 0.45086 0.02584 0.68817
v 0.23513 0.02584 0.77101
v -0.27097 -0.04407 0.77101
v -0.48670 -0.04407 0.68817
v 0.08576 -0.04407 0.80000
v 0.08576 0.02584 0.80000
v -0.27097 0.02584 0.77101
v -0.48670 0.02584 0.68817
v 0.23513 -0.04407 0.77101
v 0.45086 -0.04407 0.68817
v -0.12160 -0.04407 0.80000
v -0.12160 0.02584 0.80000
v 0.53967 -0.04953 0.16989
v 0.53967 0.03130 0.16989
v 0.53967 0.03130 0.40222
v 0.53967 -0.04953 0.40222
v -0.08034 0.18184 -0.30712
v -0.17487 0.18184 -0.30712
v 0.13903 0.18184 -0.11826
v 0.02696 0.18184 -0.11826
v -0.06280 0.18184 -0.11826
v 0.04450 0.18184 -0.30712
v -0.17487 0.18184 -0.11826
v 0.13903 0.18184 -0.30712
vt 0.25000 0.25000
vt 0.25000 0.75000
vt 0.75000 0.75000
vn -0.9756 -0.2197 0.0000
vn -0.0000 -1.0000 0.0000
vn 0.9756 0.2197 0.0000
vn 0.0000 1.0000 0.0000
vn 0.6577 0.2352 -0.7156
vn -0.3589 0.2433 0.9011
vn -0.3589 -0.2433 0.9011
vn 0.6577 -0.2352 -0.7156
vn 0.6632 -0.0000 -0.7484
vn 0.9756 -0.2197 0.0000
vn 1.0000 -0.0000 0.0000
vn -0.9756 0.2197 0.0000
vn -1.0000 0.0000 0.0000
vn -0.6632 0.0000 -0.7484
vn 0.0000 0.0000 -1.0000
vn -0.6577 -0.2352 -0.7156
vn -0.0000 -0.2197 -0.9756
vn 0.3589 -0.2433 0.9011
vn -0.0000 -0.2197 0.9756
vn 0.3589 0.2433 0.9011
vn 0.0000 0.2197 0.9756
vn -0.6577 0.2352 -0.7156
vn 0.0000 0.2197 -0.9756
vn 0.0000 0.6772 0.7358
vn 0.0000 0.4939 -0.8695
vn 0.6648 0.7470 0.0000
vn -0.6648 0.7470 0.0000
vn -0.3585 0.0000 0.9335
vn 0.3585 -0.0000 0.9335
vn 0.0000 0.0000 1.0000
vn -0.9819 0.0000 -0.1896
vn 0.9819 -0.0000 -0.1896
vn 0.9819 -0.0000 0.1896
vn -0.9819 0.0000 0.1896
vn 0.9335 -0.0000 0.3585
vn -0.9335 0.0000 -0.3585
vn 0.9335 -0.0000 -0.3585
vn -0.9335 0.0000 0.3585
vn 0.0000 0.6468 -0.7626
vn 0.0000 0.6468 0.7626
vn 0.5786 0.8156 0.0000
vn -0.5786 0.8156 0.0000
f 1/2/1 2/2/1 3/2/1
f 3/2/1 4/2/1 1/2/1
f 5/2/2 6/2/2 7/2/2
f 7/2/2 8/2/2 5/2/2
f 9/2/3 10/2/3 11/2/3
f 10/2/3 9/2/3 12/2/3
f 13/2/4 14/2/4 15/2/4
f 14/2/4 13/2/4 16/2/4
f 17/2/5 18/2/5 19/2/5
f 18/2/5 17/2/5 20/2/5
f 21/2/6 22/2/6 14/2/6
f 14/2/6 16/2/6 21/2/6
f 4/2/7 23/2/7 24/2/7
f 24/2/7 1/2/7 4/2/7
f 25/2/8 26/2/8 27/2/8
f 26/2/8 25/2/8 28/2/8
f 20/2/9 27/2/9 18/2/9
f 27/2/9 20/2/9 25/2/9
f 29/2/10 7/2/10 30/2/10
f 7/2/10 29/2/10 8/2/10
f 12/2/11 30/2/11 10/2/11
f 30/2/11 12/2/11 29/2/11
f 16/2/12 31/2/12 32/2/12
f 32/2/12 21/2/12 16/2/12
f 21/2/13 32/2/13 2/2/13
f 2/2/13 1/2/13 21/2/13
f 33/2/14 34/2/14 35/2/14
f 34/2/14 33/2/14 36/2/14
f 37/2/15 27/2/15 38/2/15
f 27/2/15 37/2/15 18/2/15
f 36/2/16 39/2/16 34/2/16
f 39/2/16 36/2/16 40/2/16
f 27/2/17 40/2/17 36/2/17
f 40/2/17 27/2/17 26/2/17
f 5/2/18 8/2/18 29/2/18
f 29/2/18 41/2/18 5/2/18
f 23/2/19 5/2/19 41/2/19
f 41/2/19 24/2/19 23/2/19
f 42/2/20 12/2/20 9/2/20
f 9/2/20 43/2/20 42/2/20
f 22/2/21 42/2/21 43/2/21
f 43/2/21 14/2/21 22/2/21
f 44/2/22 35/2/22 45/2/22
f 35/2/22 44/2/22 33/2/22
f 19/2/23 33/2/23 44/2/23
f 33/2/23 19/2/23 18/2/23
f 46/2/4 45/2/4 47/2/4
f 45/2/4 46/2/4 44/2/4
f 15/2/4 43/2/4 48/2/4
f 43/2/4 15/2/4 14/2/4
f 4/2/2 3/2/2 49/2/2
f 49/2/2 23/2/2 4/2/2
f 23/2/2 49/2/2 6/2/2
f 6/2/2 5/2/2 23/2/2
f 50/2/24 51/2/24 52/2/24
f 52/2/24 53/2/24 50/2/24
f 54/2/24 55/2/24 56/2/24
f 56/2/24 57/2/24 54/2/24
f 58/2/25 59/2/25 60/2/25
f 59/2/25 58/2/25 48/2/25
f 59/2/4 11/2/4 61/2/4
f 11/2/4 59/2/4 9/2/4
f 48/2/4 9/2/4 59/2/4
f 9/2/4 48/2/4 43/2/4
f 55/2/4 62/2/4 63/2/4
f 62/2/4 55/2/4 45/2/4
f 64/2/4 19/2/4 65/2/4
f 19/2/4 64/2/4 17/2/4
f 66/2/4 51/2/4 67/2/4
f 51/2/4 66/2/4 54/2/4
f 56/2/26 63/2/26 68/2/26
f 63/2/26 56/2/26 55/2/26
f 69/2/25 48/2/25 58/2/25
f 48/2/25 69/2/25 15/2/25
f 51/2/24 54/2/24 57/2/24
f 57/2/24 52/2/24 51/2/24
f 70/2/25 15/2/25 69/2/25
f 15/2/25 70/2/25 13/2/25
f 60/2/27 61/2/27 71/2/27
f 61/2/27 60/2/27 59/2/27
f 1/2/28 24/2/28 72/2/28
f 72/2/28 73/2/28 1/2/28
f 21/2/28 1/2/28 73/2/28
f 73/2/28 74/2/28 21/2/28
f 22/2/28 21/2/28 74/2/28
f 74/2/28 75/2/28 22/2/28
f 24/2/28 22/2/28 75/2/28
f 75/2/28 72/2/28 24/2/28
f 41/2/29 29/2/29 76/2/29
f 76/2/29 77/2/29 41/2/29
f 42/2/29 41/2/29 77/2/29
f 77/2/29 78/2/29 42/2/29
f 12/2/29 42/2/29 78/2/29
f 78/2/29 79/2/29 12/2/29
f 29/2/29 12/2/29 79/2/29
f 79/2/29 76/2/29 29/2/29
f 24/2/30 41/2/30 80/2/30
f 80/2/30 81/2/30 24/2/30
f 22/2/30 24/2/30 81/2/30
f 81/2/30 82/2/30 22/2/30
f 42/2/30 22/2/30 82/2/30
f 82/2/30 83/2/30 42/2/30
f 41/2/30 42/2/30 83/2/30
f 83/2/30 80/2/30 41/2/30
f 84/2/27 50/2/27 53/2/27
f 50/2/27 84/2/27 85/2/27
f 71/2/27 85/2/27 84/2/27
f 85/2/27 71/2/27 61/2/27
f 86/2/26 13/2/26 70/2/26
f 13/2/26 86/2/26 87/2/26
f 68/2/26 87/2/26 86/2/26
f 87/2/26 68/2/26 63/2/26
f 87/2/4 16/2/4 13/2/4
f 16/2/4 87/2/4 31/2/4
f 63/2/4 31/2/4 87/2/4
f 31/2/4 63/2/4 62/2/4
f 85/2/4 17/2/4 50/2/4
f 17/2/4 85/2/4 88/2/4
f 61/2/4 88/2/4 85/2/4
f 88/2/4 61/2/4 11/2/4
f 89/2/2 40/2/2 26/2/2
f 26/2/2 90/2/2 89/2/2
f 49/2/2 89/2/2 90/2/2
f 90/2/2 6/2/2 49/2/2
f 91/2/2 39/2/2 40/2/2
f 40/2/2 89/2/2 91/2/2
f 3/2/2 91/2/2 89/2/2
f 89/2/2 49/2/2 3/2/2
f 92/2/13 35/2/13 34/2/13
f 34/2/13 93/2/13 92/2/13
f 32/2/13 92/2/13 93/2/13
f 93/2/13 2/2/13 32/2/13
f 62/2/12 45/2/12 35/2/12
f 35/2/12 92/2/12 62/2/12
f 31/2/12 62/2/12 92/2/12
f 92/2/12 32/2/12 31/2/12
f 94/2/11 25/2/11 20/2/11
f 25/2/11 94/2/11 95/2/11
f 96/2/11 10/2/11 97/2/11
f 10/2/11 96/2/11 94/2/11
f 95/2/10 28/2/10 25/2/10
f 28/2/10 95/2/10 98/2/10
f 30/2/10 98/2/10 95/2/10
f 98/2/10 30/2/10 7/2/10
f 88/2/3 20/2/3 17/2/3
f 20/2/3 88/2/3 94/2/3
f 11/2/3 94/2/3 88/2/3
f 94/2/3 11/2/3 10/2/3
f 90/2/2 26/2/2 28/2/2
f 28/2/2 98/2/2 90/2/2
f 6/2/2 90/2/2 98/2/2
f 98/2/2 7/2/2 6/2/2
f 93/2/1 34/2/1 39/2/1
f 39/2/1 91/2/1 93/2/1
f 2/2/1 93/2/1 91/2/1
f 91/2/1 3/2/1 2/2/1
f 97/2/11 30/2/11 99/2/11
f 30/2/11 97/2/11 10/2/11
f 99/2/11 95/2/11 100/2/11
f 95/2/11 99/2/11 30/2/11
f 100/2/11 94/2/11 96/2/11
f 94/2/11 100/2/11 95/2/11
f 101/2/4 17/2/4 64/2/4
f 17/2/4 101/2/4 50/2/4
f 65/2/4 44/2/4 46/2/4
f 44/2/4 65/2/4 19/2/4
f 47/2/4 55/2/4 102/2/4
f 55/2/4 47/2/4 45/2/4
f 102/2/4 54/2/4 66/2/4
f 54/2/4 102/2/4 55/2/4
f 67/2/4 50/2/4 101/2/4
f 50/2/4 67/2/4 51/2/4
f 103/2/31 104/2/31 105/2/31
f 105/2/31 106/2/31 103/2/31
f 104/2/15 18/2/15 37/2/15
f 18/2/15 104/2/15 33/2/15
f 38/2/15 36/2/15 103/2/15
f 36/2/15 38/2/15 27/2/15
f 103/2/15 33/2/15 104/2/15
f 33/2/15 103/2/15 36/2/15
f 107/2/15 106/2/15 105/2/15
f 106/2/15 107/2/15 108/2/15
f 109/2/4 104/2/4 110/2/4
f 104/2/4 109/2/4 105/2/4
f 107/2/32 38/2/32 108/2/32
f 38/2/32 107/2/32 37/2/32
f 111/2/4 107/2/4 112/2/4
f 107/2/4 111/2/4 37/2/4
f 109/2/33 113/2/33 114/2/33
f 113/2/33 109/2/33 110/2/33
f 111/2/15 113/2/15 110/2/15
f 113/2/15 111/2/15 115/2/15
f 38/2/2 103/2/2 113/2/2
f 113/2/2 115/2/2 38/2/2
f 112/2/4 105/2/4 109/2/4
f 105/2/4 112/2/4 107/2/4
f 108/2/2 38/2/2 115/2/2
f 115/2/2 116/2/2 108/2/2
f 103/2/2 106/2/2 114/2/2
f 114/2/2 113/2/2 103/2/2
f 110/2/4 37/2/4 111/2/4
f 37/2/4 110/2/4 104/2/4
f 106/2/2 108/2/2 116/2/2
f 116/2/2 114/2/2 106/2/2
f 109/2/30 114/2/30 116/2/30
f 116/2/30 112/2/30 109/2/30
f 112/2/34 116/2/34 115/2/34
f 115/2/34 111/2/34 112/2/34
f 70/1/4 117/1/4 86/1/4
f 117/1/4 70/1/4 69/1/4
f 58/1/4 71/1/4 118/1/4
f 71/1/4 58/1/4 60/1/4
f 69/1/4 118/1/4 117/1/4
f 118/1/4 69/1/4 58/1/4
f 119/1/4 52/1/4 57/1/4
f 52/1/4 119/1/4 120/1/4
f 117/1/4 120/1/4 119/1/4
f 120/1/4 117/1/4 118/1/4
f 120/1/4 53/1/4 52/1/4
f 53/1/4 120/1/4 84/1/4
f 118/1/4 84/1/4 120/1/4
f 84/1/4 118/1/4 71/1/4
f 68/1/4 57/1/4 56/1/4
f 57/1/4 68/1/4 119/1/4
f 86/1/4 119/1/4 68/1/4
f 119/1/4 86/1/4 117/1/4
f 121/3/4 78/3/4 122/3/4
f 78/3/4 121/3/4 79/3/4
f 73/3/2 72/3/2 123/3/2
f 123/3/2 124/3/2 73/3/2
f 125/3/11 83/3/11 126/3/11
f 83/3/11 125/3/11 80/3/11
f 124/3/28 123/3/28 127/3/28
f 127/3/28 128/3/28 124/3/28
f 129/3/29 130/3/29 121/3/29
f 121/3/29 122/3/29 129/3/29
f 131/3/30 125/3/30 126/3/30
f 126/3/30 132/3/30 131/3/30
f 82/3/13 81/3/13 131/3/13
f 131/3/13 132/3/13 82/3/13
f 123/3/35 75/3/35 127/3/35
f 75/3/35 123/3/35 72/3/35
f 77/3/2 76/3/2 130/3/2
f 130/3/2 129/3/2 77/3/2
f 126/3/4 82/3/4 132/3/4
f 82/3/4 126/3/4 83/3/4
f 74/3/36 73/3/36 124/3/36
f 124/3/36 128/3/36 74/3/36
f 130/3/37 79/3/37 121/3/37
f 79/3/37 130/3/37 76/3/37
f 81/3/2 80/3/2 125/3/2
f 125/3/2 131/3/2 81/3/2
f 127/3/4 74/3/4 128/3/4
f 74/3/4 127/3/4 75/3/4
f 78/3/38 77/3/38 129/3/38
f 129/3/38 122/3/38 78/3/38
f 133/3/15 96/3/15 134/3/15
f 96/3/15 133/3/15 100/3/15
f 135/3/11 133/3/11 134/3/11
f 133/3/11 135/3/11 136/3/11
f 99/3/2 100/3/2 133/3/2
f 133/3/2 136/3/2 99/3/2
f 97/3/30 99/3/30 136/3/30
f 136/3/30 135/3/30 97/3/30
f 134/3/4 97/3/4 135/3/4
f 97/3/4 134/3/4 96/3/4
f 137/3/39 47/3/39 138/3/39
f 47/3/39 137/3/39 46/3/39
f 67/3/40 101/3/40 139/3/40
f 139/3/40 140/3/40 67/3/40
f 66/3/40 67/3/40 140/3/40
f 140/3/40 141/3/40 66/3/40
f 140/3/4 137/3/4 141/3/4
f 137/3/4 140/3/4 142/3/4
f 141/3/4 138/3/4 143/3/4
f 138/3/4 141/3/4 137/3/4
f 139/3/4 142/3/4 140/3/4
f 142/3/4 139/3/4 144/3/4
f 139/3/41 64/3/41 144/3/41
f 64/3/41 139/3/41 101/3/41
f 102/3/40 66/3/40 141/3/40
f 141/3/40 143/3/40 102/3/40
f 142/3/39 46/3/39 137/3/39
f 46/3/39 142/3/39 65/3/39
f 144/3/39 65/3/39 142/3/39
f 65/3/39 144/3/39 64/3/39
f 138/3/42 102/3/42 143/3/42
f 102/3/42 138/3/42 47/3/42
